<svg data-v-fde0c5aa="" xmlns="http://www.w3.org/2000/svg" viewBox="0 0 300 300" class="font"><!----><defs data-v-fde0c5aa=""><!----></defs><rect data-v-fde0c5aa="" fill="transparent" x="0" y="0" width="300px" height="300px" class="logo-background-square"></rect><defs data-v-fde0c5aa=""><linearGradient data-v-fde0c5aa="" gradientTransform="rotate(25)" id="143870bf-276c-4da0-aaaf-222ec4fab8df" x1="0%" y1="0%" x2="100%" y2="0%"><stop data-v-fde0c5aa="" offset="0%" stop-color="#4F7E48" stop-opacity="1"></stop><stop data-v-fde0c5aa="" offset="100%" stop-color="#CAE6A5" stop-opacity="1"></stop></linearGradient></defs><g data-v-fde0c5aa="" id="39327b5b-33fe-4c65-892e-28e6526fea3d" fill="url(#143870bf-276c-4da0-aaaf-222ec4fab8df)" transform="matrix(2.9173558953153496,0,0,2.9173558953153496,37.95785090805685,126.00474803925198)"><path d="M5.68 4.23C6.82 4.23 7.94 4.80 8.58 5.45C8.72 5.57 8.81 5.56 8.90 5.45L9.32 4.98C9.44 4.86 9.48 4.80 9.35 4.68C8.41 3.79 7.04 3.25 5.68 3.25C2.93 3.25 0.70 5.54 0.70 8.33C0.70 11.12 2.93 13.41 5.68 13.41C7.06 13.41 8.53 12.85 9.45 11.94C9.60 11.79 9.67 11.66 9.67 11.44L9.67 8.34C9.67 8.19 9.63 8.12 9.46 8.12L5.89 8.12C5.73 8.12 5.67 8.18 5.67 8.34L5.67 8.88C5.67 9.04 5.73 9.09 5.89 9.09L8.57 9.09L8.57 11.35C7.90 11.96 6.92 12.43 5.68 12.43C3.50 12.43 1.82 10.43 1.82 8.33C1.82 6.22 3.50 4.23 5.68 4.23ZM15.69 6.99C15.86 6.99 15.90 6.94 15.95 6.78L16.03 6.15C16.06 6.01 16.03 5.95 15.83 5.95C13.85 5.95 13.20 7.14 12.92 7.73L12.75 6.33C12.68 6.16 12.63 6.10 12.52 6.10L12.17 6.10C12.01 6.10 11.96 6.16 11.96 6.33L11.96 13.01C11.96 13.17 12.01 13.23 12.17 13.23L12.80 13.23C12.95 13.23 13.01 13.17 13.01 13.01L13.01 9.56C13.01 8.26 13.87 6.99 15.69 6.99ZM23.14 11.77C23.03 11.65 22.97 11.68 22.82 11.76C22.15 12.25 21.31 12.46 20.62 12.46C19.21 12.46 18.02 11.34 17.92 10.04L23.76 10.04C23.94 10.04 23.97 9.98 23.97 9.81C23.97 7.71 22.69 5.95 20.51 5.95C18.47 5.95 16.84 7.63 16.84 9.67C16.84 11.72 18.47 13.38 20.58 13.38C21.62 13.38 22.75 13.05 23.41 12.40C23.51 12.31 23.51 12.22 23.41 12.10ZM17.95 9.31C17.99 8.05 19.05 6.83 20.50 6.83C21.92 6.83 22.83 8.05 22.89 9.31ZM31.54 11.77C31.43 11.65 31.37 11.68 31.22 11.76C30.55 12.25 29.71 12.46 29.02 12.46C27.61 12.46 26.42 11.34 26.32 10.04L32.16 10.04C32.34 10.04 32.37 9.98 32.37 9.81C32.37 7.71 31.09 5.95 28.91 5.95C26.87 5.95 25.24 7.63 25.24 9.67C25.24 11.72 26.87 13.38 28.98 13.38C30.02 13.38 31.15 13.05 31.81 12.40C31.91 12.31 31.91 12.22 31.81 12.10ZM26.35 9.31C26.39 8.05 27.45 6.83 28.90 6.83C30.32 6.83 31.23 8.05 31.29 9.31ZM35.15 6.33C35.08 6.16 35.03 6.10 34.92 6.10L34.57 6.10C34.41 6.10 34.36 6.16 34.36 6.33L34.36 9.53L34.36 13.01C34.36 13.17 34.41 13.23 34.57 13.23L35.20 13.23C35.35 13.23 35.41 13.17 35.41 13.01L35.41 9.48C35.41 8.08 36.19 6.90 37.41 6.90C38.54 6.90 39.38 7.71 39.38 9.38L39.38 13.01C39.38 13.17 39.44 13.23 39.59 13.23L40.22 13.23C40.38 13.23 40.43 13.17 40.43 13.01L40.43 9.10C40.43 6.86 39.16 5.95 37.66 5.95C36.29 5.95 35.56 7.03 35.27 7.59ZM48.41 11.77C48.30 11.65 48.24 11.68 48.09 11.76C47.42 12.25 46.58 12.46 45.89 12.46C44.48 12.46 43.29 11.34 43.19 10.04L49.03 10.04C49.21 10.04 49.24 9.98 49.24 9.81C49.24 7.71 47.96 5.95 45.78 5.95C43.74 5.95 42.11 7.63 42.11 9.67C42.11 11.72 43.74 13.38 45.85 13.38C46.89 13.38 48.02 13.05 48.68 12.40C48.78 12.31 48.78 12.22 48.68 12.10ZM43.22 9.31C43.26 8.05 44.32 6.83 45.77 6.83C47.19 6.83 48.10 8.05 48.16 9.31ZM54.96 6.99C55.13 6.99 55.17 6.94 55.22 6.78L55.30 6.15C55.33 6.01 55.30 5.95 55.10 5.95C53.12 5.95 52.47 7.14 52.19 7.73L52.02 6.33C51.95 6.16 51.90 6.10 51.79 6.10L51.44 6.10C51.28 6.10 51.23 6.16 51.23 6.33L51.23 13.01C51.23 13.17 51.28 13.23 51.44 13.23L52.07 13.23C52.22 13.23 52.28 13.17 52.28 13.01L52.28 9.56C52.28 8.26 53.14 6.99 54.96 6.99ZM61.32 4.23C62.45 4.23 63.57 4.80 64.22 5.45C64.36 5.57 64.44 5.56 64.54 5.45L64.96 4.98C65.07 4.86 65.11 4.80 64.99 4.68C64.05 3.79 62.68 3.25 61.32 3.25C58.56 3.25 56.34 5.54 56.34 8.33C56.34 11.12 58.56 13.41 61.32 13.41C62.69 13.41 64.16 12.85 65.09 11.94C65.24 11.79 65.31 11.66 65.31 11.44L65.31 8.34C65.31 8.19 65.27 8.12 65.10 8.12L61.53 8.12C61.36 8.12 61.31 8.18 61.31 8.34L61.31 8.88C61.31 9.04 61.36 9.09 61.53 9.09L64.20 9.09L64.20 11.35C63.53 11.96 62.55 12.43 61.32 12.43C59.14 12.43 57.46 10.43 57.46 8.33C57.46 6.22 59.14 4.23 61.32 4.23ZM67.87 13.01C67.87 13.17 67.91 13.23 68.08 13.23L68.70 13.23C68.87 13.23 68.92 13.17 68.92 13.01L68.92 6.33C68.92 6.16 68.88 6.10 68.70 6.10L68.08 6.10C67.91 6.10 67.87 6.16 67.87 6.33ZM67.65 3.77C67.65 4.17 67.97 4.49 68.38 4.49C68.78 4.49 69.12 4.17 69.12 3.77C69.12 3.36 68.78 3.04 68.38 3.04C67.97 3.04 67.65 3.36 67.65 3.77ZM75.99 13.05C76.12 12.98 76.13 12.92 76.09 12.78L76.01 12.33C75.95 12.14 75.91 12.12 75.73 12.22C75.38 12.40 75.15 12.43 74.76 12.43C73.64 12.43 73.15 11.83 73.15 10.19L73.15 6.97L75.68 6.97C75.85 6.97 75.89 6.92 75.89 6.75L75.89 6.33C75.89 6.15 75.84 6.10 75.68 6.10L73.15 6.10L73.15 4.66C73.15 4.49 73.11 4.44 72.94 4.44L72.32 4.44C72.16 4.44 72.11 4.49 72.11 4.66L72.11 6.10L71.43 6.10C71.26 6.10 71.20 6.15 71.20 6.33L71.20 6.75C71.20 6.92 71.26 6.97 71.43 6.97L72.11 6.97L72.11 10.28C72.11 12.22 72.80 13.38 74.65 13.38C74.83 13.38 75.43 13.38 75.99 13.05Z"></path></g><!----><!----></svg>